<svg xmlns="http://www.w3.org/2000/svg" viewBox="0 0 54 54" id="wave">
  <path fill="#FFFFFF" d="M36.25,41.86S31.75,47,21.88,45.67,7.82,38.4,7.82,38.4s11.53,7.12,19.12,4.06S38.07,28.21,26.59,27c0,0,8.75-6.62,14.37-.75s1.16,22.38-14.07,22.17C26.89,48.43,33.87,47.73,36.25,41.86ZM50.72,25.12C48.29,10.33,36.76,6.05,27,5.58S9.56,12.86,9.41,14.21s1.75,1.84,1.75,1.84l-.09,0A4.85,4.85,0,0,0,7.82,19.6C7.18,23.08,12,21.37,12,21.37a5,5,0,0,0-2.22,3.15,4.23,4.23,0,0,0,3.87,5.08c3,.24,5.94-6,5.94-6-1.15,2.31,0,4.08,1.86,4.25s3.67-.57,5.83-4.07S43.84,17.16,46,29.27,35.34,48.13,35.34,48.13C39,48.37,53.15,39.9,50.72,25.12Zm-46.6,7c3.44.95,2.43-5.28,2.43-5.28S.58,30.32,4.12,32.13Zm14.27-1.68s-3.84,3.18-1.09,4.31C20.29,35.14,18.39,30.45,18.39,30.45ZM5.51,17.67h0s-2.69-.1-2.31,1.18C3.82,20.11,5.51,17.67,5.51,17.67Z"></path>
</svg>
